PathFileType	4	(X/Y/Z)	s03c0102.trc
DataRate	CameraRate	NumFrames	NumMarkers	Units	OrigDataRate	OrigDataStartFrame	OrigNumFrames
200	200	4	52	mm	200	1000	2000
Frame#	Time	racr			lacr			c7			jug			rlel			rdr			llel			ldr			s2			lic			ric			lasi			rasi			rpsi			lpsi			rgt			lgt			rth1			rth2			rth3			rth4			rlfc			rmfc			rsh1			rsh2			rsh3			rsh4			rlmal			rmmal			rcal			rtoe			rmt5			rmt1			lth1			lth2			lth4			lth3			llfc			lmfc			lsh1			lsh2			lsh3			lsh4			llmal			lmmal			lcal			ltoe			lmt1			lmt5			SBIKE			LBIKE			RBIKE			
		X1	Y1	Z1	X2	Y2	Z2	X3	Y3	Z3	X4	Y4	Z4	X5	Y5	Z5	X6	Y6	Z6	X7	Y7	Z7	X8	Y8	Z8	X9	Y9	Z9	X10	Y10	Z10	X11	Y11	Z11	X12	Y12	Z12	X13	Y13	Z13	X14	Y14	Z14	X15	Y15	Z15	X16	Y16	Z16	X17	Y17	Z17	X18	Y18	Z18	X19	Y19	Z19	X20	Y20	Z20	X21	Y21	Z21	X22	Y22	Z22	X23	Y23	Z23	X24	Y24	Z24	X25	Y25	Z25	X26	Y26	Z26	X27	Y27	Z27	X28	Y28	Z28	X29	Y29	Z29	X30	Y30	Z30	X31	Y31	Z31	X32	Y32	Z32	X33	Y33	Z33	X34	Y34	Z34	X35	Y35	Z35	X36	Y36	Z36	X37	Y37	Z37	X38	Y38	Z38	X39	Y39	Z39	X40	Y40	Z40	X41	Y41	Z41	X42	Y42	Z42	X43	Y43	Z43	X44	Y44	Z44	X45	Y45	Z45	X46	Y46	Z46	X47	Y47	Z47	X48	Y48	Z48	X49	Y49	Z49	X50	Y50	Z50	X51	Y51	Z51	X52	Y52	Z52	
1000	5.0000	441.137332	1421.334962	-75.791765	467.357653	1402.196352	-384.739432	391.912174	1507.097183	-236.368743	392.640555	1331.034504	-233.068835	493.662120	1155.138886	3.641142	722.261866	964.732934	-51.452864	547.177931	1157.822343	-476.848893	747.179657	925.149760	-428.469301	-112.655405	1209.876404	-286.755296	70.237898	1245.814821	-448.793902	16.760369	1269.635477	-87.000809	87.923792	1179.022031	-410.358499	63.723433	1197.951031	-128.668299	-96.616020	1268.534730	-248.108211	-83.652051	1262.224064	-324.642263	1.942072	1194.085450	-75.656736	13.998887	1112.970910	-465.861305	137.856303	1126.108862	-49.434349	226.650651	1129.759828	-48.055353	303.926752	1091.655361	-45.942297	234.711067	1161.760601	-67.423902	429.287291	1035.861335	-64.314991	441.519877	1014.420306	-194.320878	365.799667	885.580629	-42.317362	344.375021	799.750468	-53.087501	283.336454	736.136087	-52.285993	371.419985	786.499652	-76.607929	213.798646	617.313937	-68.471411	240.430251	624.770266	-154.629669	141.490941	587.182807	-106.784545	434.100503	485.391999	-125.893680	320.912534	507.098198	-50.790535	343.241585	514.771345	-163.796275	102.886168	983.718763	-483.009185	167.365430	926.038235	-490.643826	197.845366	946.092345	-487.280836	196.192407	841.807237	-485.654127	277.772635	736.677068	-470.403601	286.057024	726.098807	-346.920900	207.823763	578.108177	-481.083940	206.944937	494.920381	-461.126314	161.123100	418.314919	-448.328923	241.121133	488.660622	-442.354693	120.919626	303.690778	-422.304823	161.572683	307.531368	-340.507230	54.322016	301.417684	-373.615340	306.855152	123.041793	-353.993107	227.057129	176.337107	-319.023785	196.636504	165.367343	-435.334723	-217.052690	945.100659	-239.111544	-11.203659	80.836531	-435.804695	-11.483394	81.996786	-35.370103	
1001	5.0050	440.051792	1421.341208	-74.945181	467.762830	1401.564778	-383.589354	391.845897	1506.783979	-235.689720	392.219991	1330.734278	-232.063916	493.192608	1155.450598	4.021629	721.760498	965.100065	-51.485959	545.314157	1156.458659	-476.887646	746.799807	924.991725	-428.741390	-113.155315	1210.607814	-286.709519	69.692924	1246.282111	-448.793128	15.868458	1270.654078	-86.977437	87.039908	1179.120555	-410.356633	63.450249	1197.209734	-128.055788	-96.829187	1268.936015	-248.372705	-84.965181	1262.817747	-324.246533	0.935967	1193.298208	-75.759490	13.799933	1113.952292	-466.004987	136.889589	1123.369672	-49.306821	225.953331	1125.944456	-48.570551	302.853713	1087.536432	-45.558639	233.912691	1157.933146	-67.044272	427.961909	1030.348133	-64.250032	439.989047	1009.222897	-194.197213	365.755796	879.109303	-42.057503	345.586133	792.894532	-52.612088	285.524485	728.361469	-51.740388	372.966058	779.867784	-76.097587	218.472118	607.877303	-67.406606	244.417153	616.080041	-153.690041	146.484901	575.410902	-105.399643	442.678039	485.294106	-125.896752	328.823648	502.010164	-49.915938	350.602461	511.327208	-163.211900	103.860369	986.385253	-483.213621	169.143696	929.523538	-490.903684	199.318377	949.893786	-487.181280	198.922118	845.584997	-486.870642	280.687050	740.615226	-472.515080	289.523377	729.937681	-348.902921	208.414527	582.762656	-482.121928	206.158128	499.714979	-461.803973	159.142166	423.962631	-448.627507	240.294718	492.908164	-443.124850	117.155460	310.636557	-422.316315	157.861526	313.867322	-340.323497	50.278279	310.673475	-373.481360	296.646486	123.453486	-353.945264	218.973055	179.525031	-319.102250	188.171577	169.962080	-435.037980	-217.173901	945.095020	-239.207733	-11.252753	80.839451	-435.859852	-11.538521	82.006514	-35.423818	
1002	5.0100	439.088658	1421.252178	-74.292554	468.091357	1400.996496	-382.650436	391.776416	1506.436608	-235.144106	391.844353	1330.399319	-231.270446	492.720736	1155.645891	4.407149	721.269193	965.380648	-51.519083	543.770945	1155.243559	-477.412481	746.232331	924.847334	-428.806360	-113.657120	1211.151193	-286.382820	68.729541	1246.724858	-448.624652	15.123535	1271.323157	-86.874604	85.988816	1179.277504	-410.378131	63.272783	1196.330508	-127.323575	-97.045812	1269.113538	-248.283911	-81.497778	1261.166262	-327.165632	0.159443	1192.041077	-75.682170	13.481719	1114.857440	-466.022363	136.002752	1119.989914	-49.036525	225.073768	1121.375277	-48.211329	301.239010	1082.048937	-45.973136	233.485703	1153.623905	-66.036817	426.065177	1023.845341	-64.501046	438.375023	1002.775957	-193.620557	365.186846	871.102589	-42.141953	346.531757	784.782533	-51.979087	287.378739	719.466157	-51.173374	374.095361	772.134704	-75.395408	222.902317	597.305599	-66.231999	248.215091	606.134376	-152.852780	151.401273	562.318344	-103.775131	450.480427	484.845686	-125.929835	336.173320	496.128340	-48.610653	357.732303	506.967695	-162.530605	104.837681	988.936099	-483.339736	170.872361	933.046160	-491.008045	200.728867	953.778088	-487.000687	201.752412	849.461498	-487.886767	283.865665	744.768947	-474.678836	293.312646	733.801376	-350.938472	209.267525	587.708130	-483.204993	205.871842	505.566976	-463.760602	157.353748	429.918561	-448.897810	239.509811	497.725101	-443.515526	113.545339	317.930699	-422.352336	154.703647	320.219414	-340.195441	46.665927	320.121328	-373.096304	286.555424	124.626743	-353.793196	210.990874	183.090923	-319.053139	180.123339	175.305576	-434.954964	-217.284162	945.073911	-239.299242	-11.268543	80.879209	-435.939852	-11.575395	82.004056	-35.468204	
1003	5.0150	438.307613	1421.060953	-73.693658	468.376551	1400.535340	-381.921292	391.686818	1506.098020	-234.767870	391.564649	1330.072735	-230.702982	492.169117	1155.656050	4.798973	720.663337	965.537813	-51.620438	542.237611	1154.156904	-478.034901	745.757772	924.700352	-429.263315	-114.102250	1211.374740	-285.736499	67.721894	1247.041113	-448.544333	14.604392	1271.658131	-86.602750	84.950075	1179.473358	-410.202012	63.188553	1195.324425	-126.476908	-97.256705	1269.099510	-247.843713	-82.168055	1262.010607	-326.239494	-0.674605	1190.570816	-75.334114	13.075802	1115.852219	-465.967848	135.211712	1115.961861	-48.577579	224.311172	1115.837774	-47.523243	299.840479	1075.438038	-45.778814	233.206274	1148.335812	-64.704600	423.243781	1016.402524	-63.658237	435.751614	994.871086	-193.691570	364.518156	862.386767	-41.374299	347.392820	775.522331	-51.026935	289.156531	709.178483	-50.340000	375.024446	763.313889	-74.570362	227.274301	585.755794	-65.084410	251.788135	595.052256	-152.105554	156.095834	548.236372	-102.138320	458.114990	483.725351	-125.246864	343.329031	489.110455	-47.172049	363.818249	501.708883	-161.246983	105.766008	991.500300	-483.467399	172.598388	936.639544	-491.142949	202.120590	957.688213	-486.802443	204.581748	853.432561	-488.857937	287.324420	749.164730	-476.775704	297.210191	738.061626	-352.896682	210.369528	592.887499	-484.253209	205.571251	510.926306	-464.441975	155.762902	436.208748	-449.134771	239.094060	502.396375	-443.931926	110.052548	325.571037	-422.278103	151.591660	327.029441	-340.018451	43.327112	329.876991	-372.769067	276.745132	126.439492	-353.734488	205.098292	190.007112	-322.849614	172.155972	180.973731	-434.614873	-217.382177	944.981248	-239.317758	-11.309785	80.876385	-435.924163	-11.620997	81.959677	-35.499679	
